<svg width="592" height="222" viewBox="0 0 592 222" fill="none" xmlns="http://www.w3.org/2000/svg">
<path opacity="0.5" d="M72.7827 219H69.1918V207.364H72.9418C74.0706 207.364 75.0365 207.597 75.8395 208.062C76.6426 208.525 77.2581 209.189 77.6861 210.057C78.1142 210.92 78.3282 211.955 78.3282 213.159C78.3282 214.371 78.1123 215.415 77.6805 216.29C77.2486 217.161 76.6198 217.831 75.7941 218.301C74.9683 218.767 73.9645 219 72.7827 219ZM70.6009 217.75H72.6918C73.6539 217.75 74.4513 217.564 75.0839 217.193C75.7164 216.822 76.188 216.294 76.4986 215.608C76.8092 214.922 76.9645 214.106 76.9645 213.159C76.9645 212.22 76.8111 211.411 76.5043 210.733C76.1975 210.051 75.7392 209.528 75.1293 209.165C74.5195 208.797 73.76 208.614 72.8509 208.614H70.6009V217.75ZM83.0782 219.205C82.5252 219.205 82.0233 219.1 81.5725 218.892C81.1217 218.68 80.7638 218.375 80.4986 217.977C80.2335 217.576 80.1009 217.091 80.1009 216.523C80.1009 216.023 80.1994 215.617 80.3964 215.307C80.5933 214.992 80.8566 214.746 81.1861 214.568C81.5157 214.39 81.8793 214.258 82.277 214.17C82.6786 214.08 83.082 214.008 83.4873 213.955C84.0176 213.886 84.4475 213.835 84.777 213.801C85.1104 213.763 85.3528 213.701 85.5043 213.614C85.6596 213.527 85.7373 213.375 85.7373 213.159V213.114C85.7373 212.553 85.5839 212.117 85.277 211.807C84.974 211.496 84.5138 211.341 83.8964 211.341C83.2562 211.341 82.7543 211.481 82.3907 211.761C82.027 212.042 81.7714 212.341 81.6236 212.659L80.3509 212.205C80.5782 211.674 80.8812 211.261 81.26 210.966C81.6426 210.667 82.0592 210.458 82.51 210.341C82.9645 210.22 83.4115 210.159 83.8509 210.159C84.1312 210.159 84.4532 210.193 84.8168 210.261C85.1842 210.326 85.5384 210.46 85.8793 210.665C86.224 210.869 86.51 211.178 86.7373 211.591C86.9645 212.004 87.0782 212.557 87.0782 213.25V219H85.7373V217.818H85.6691C85.5782 218.008 85.4267 218.21 85.2145 218.426C85.0024 218.642 84.7202 218.826 84.368 218.977C84.0157 219.129 83.5858 219.205 83.0782 219.205ZM83.2827 218C83.813 218 84.26 217.896 84.6236 217.688C84.9911 217.479 85.2676 217.21 85.4532 216.881C85.6426 216.551 85.7373 216.205 85.7373 215.841V214.614C85.6805 214.682 85.5555 214.744 85.3623 214.801C85.1729 214.854 84.9532 214.902 84.7032 214.943C84.457 214.981 84.2164 215.015 83.9816 215.045C83.7505 215.072 83.563 215.095 83.4191 215.114C83.0706 215.159 82.7448 215.233 82.4418 215.335C82.1426 215.434 81.9002 215.583 81.7145 215.784C81.5327 215.981 81.4418 216.25 81.4418 216.591C81.4418 217.057 81.6142 217.409 81.9589 217.648C82.3073 217.883 82.7486 218 83.2827 218ZM92.8211 219.182C92.0938 219.182 91.4518 218.998 90.8949 218.631C90.3381 218.259 89.9025 217.737 89.5881 217.062C89.2737 216.384 89.1165 215.583 89.1165 214.659C89.1165 213.742 89.2737 212.947 89.5881 212.273C89.9025 211.598 90.34 211.078 90.9006 210.71C91.4612 210.343 92.109 210.159 92.8438 210.159C93.412 210.159 93.8609 210.254 94.1904 210.443C94.5237 210.629 94.7775 210.841 94.9518 211.08C95.1298 211.314 95.268 211.508 95.3665 211.659H95.4802V207.364H96.8211V219H95.5256V217.659H95.3665C95.268 217.818 95.1279 218.019 94.9461 218.261C94.7643 218.5 94.5048 218.714 94.1677 218.903C93.8305 219.089 93.3817 219.182 92.8211 219.182ZM93.0029 217.977C93.5408 217.977 93.9953 217.837 94.3665 217.557C94.7377 217.273 95.0199 216.881 95.2131 216.381C95.4063 215.877 95.5029 215.295 95.5029 214.636C95.5029 213.985 95.4082 213.415 95.2188 212.926C95.0294 212.434 94.7491 212.051 94.3779 211.778C94.0067 211.502 93.5484 211.364 93.0029 211.364C92.4347 211.364 91.9612 211.509 91.5824 211.801C91.2074 212.089 90.9252 212.481 90.7359 212.977C90.5502 213.47 90.4574 214.023 90.4574 214.636C90.4574 215.258 90.5521 215.822 90.7415 216.33C90.9347 216.833 91.2188 217.235 91.5938 217.534C91.9726 217.83 92.4423 217.977 93.0029 217.977ZM103.009 219.182C102.221 219.182 101.529 218.994 100.935 218.619C100.344 218.244 99.8817 217.72 99.5484 217.045C99.2188 216.371 99.054 215.583 99.054 214.682C99.054 213.773 99.2188 212.979 99.5484 212.301C99.8817 211.623 100.344 211.097 100.935 210.722C101.529 210.347 102.221 210.159 103.009 210.159C103.796 210.159 104.486 210.347 105.077 210.722C105.671 211.097 106.134 211.623 106.463 212.301C106.796 212.979 106.963 213.773 106.963 214.682C106.963 215.583 106.796 216.371 106.463 217.045C106.134 217.72 105.671 218.244 105.077 218.619C104.486 218.994 103.796 219.182 103.009 219.182ZM103.009 217.977C103.607 217.977 104.099 217.824 104.486 217.517C104.872 217.21 105.158 216.807 105.344 216.307C105.529 215.807 105.622 215.265 105.622 214.682C105.622 214.098 105.529 213.555 105.344 213.051C105.158 212.547 104.872 212.14 104.486 211.83C104.099 211.519 103.607 211.364 103.009 211.364C102.41 211.364 101.918 211.519 101.531 211.83C101.145 212.14 100.859 212.547 100.673 213.051C100.488 213.555 100.395 214.098 100.395 214.682C100.395 215.265 100.488 215.807 100.673 216.307C100.859 216.807 101.145 217.21 101.531 217.517C101.918 217.824 102.41 217.977 103.009 217.977ZM115.192 212.227L113.987 212.568C113.912 212.367 113.8 212.172 113.652 211.983C113.508 211.79 113.311 211.631 113.061 211.506C112.811 211.381 112.491 211.318 112.101 211.318C111.567 211.318 111.122 211.441 110.766 211.688C110.413 211.93 110.237 212.239 110.237 212.614C110.237 212.947 110.358 213.21 110.601 213.403C110.843 213.597 111.222 213.758 111.737 213.886L113.033 214.205C113.813 214.394 114.394 214.684 114.777 215.074C115.16 215.46 115.351 215.958 115.351 216.568C115.351 217.068 115.207 217.515 114.919 217.909C114.635 218.303 114.237 218.614 113.726 218.841C113.215 219.068 112.62 219.182 111.942 219.182C111.052 219.182 110.315 218.989 109.732 218.602C109.148 218.216 108.779 217.652 108.624 216.909L109.896 216.591C110.018 217.061 110.247 217.413 110.584 217.648C110.925 217.883 111.37 218 111.919 218C112.544 218 113.04 217.867 113.408 217.602C113.779 217.333 113.965 217.011 113.965 216.636C113.965 216.333 113.858 216.08 113.646 215.875C113.434 215.667 113.108 215.511 112.669 215.409L111.215 215.068C110.415 214.879 109.828 214.585 109.453 214.188C109.082 213.786 108.896 213.284 108.896 212.682C108.896 212.189 109.035 211.754 109.311 211.375C109.591 210.996 109.972 210.699 110.453 210.483C110.938 210.267 111.487 210.159 112.101 210.159C112.965 210.159 113.643 210.348 114.135 210.727C114.631 211.106 114.983 211.606 115.192 212.227Z" fill="white"/>
<path opacity="0.5" d="M260.241 206.364V218H258.832V206.364H260.241ZM264.225 212.75V218H262.884V209.273H264.18V210.636H264.293C264.498 210.193 264.808 209.837 265.225 209.568C265.642 209.295 266.18 209.159 266.839 209.159C267.43 209.159 267.947 209.28 268.39 209.523C268.833 209.761 269.178 210.125 269.424 210.614C269.67 211.098 269.793 211.712 269.793 212.455V218H268.452V212.545C268.452 211.86 268.274 211.326 267.918 210.943C267.562 210.557 267.073 210.364 266.452 210.364C266.024 210.364 265.642 210.456 265.305 210.642C264.971 210.828 264.708 211.098 264.515 211.455C264.322 211.811 264.225 212.242 264.225 212.75ZM276.13 209.273V210.409H271.425V209.273H276.13ZM272.834 218V208.068C272.834 207.568 272.952 207.152 273.187 206.818C273.421 206.485 273.726 206.235 274.101 206.068C274.476 205.902 274.872 205.818 275.289 205.818C275.618 205.818 275.887 205.845 276.096 205.898C276.304 205.951 276.459 206 276.562 206.045L276.175 207.205C276.107 207.182 276.012 207.153 275.891 207.119C275.774 207.085 275.618 207.068 275.425 207.068C274.982 207.068 274.662 207.18 274.465 207.403C274.272 207.627 274.175 207.955 274.175 208.386V218H272.834ZM281.195 218.182C280.407 218.182 279.716 217.994 279.121 217.619C278.53 217.244 278.068 216.72 277.735 216.045C277.405 215.371 277.241 214.583 277.241 213.682C277.241 212.773 277.405 211.979 277.735 211.301C278.068 210.623 278.53 210.097 279.121 209.722C279.716 209.347 280.407 209.159 281.195 209.159C281.983 209.159 282.672 209.347 283.263 209.722C283.858 210.097 284.32 210.623 284.65 211.301C284.983 211.979 285.15 212.773 285.15 213.682C285.15 214.583 284.983 215.371 284.65 216.045C284.32 216.72 283.858 217.244 283.263 217.619C282.672 217.994 281.983 218.182 281.195 218.182ZM281.195 216.977C281.794 216.977 282.286 216.824 282.672 216.517C283.059 216.21 283.345 215.807 283.53 215.307C283.716 214.807 283.809 214.265 283.809 213.682C283.809 213.098 283.716 212.555 283.53 212.051C283.345 211.547 283.059 211.14 282.672 210.83C282.286 210.519 281.794 210.364 281.195 210.364C280.597 210.364 280.104 210.519 279.718 210.83C279.332 211.14 279.046 211.547 278.86 212.051C278.674 212.555 278.582 213.098 278.582 213.682C278.582 214.265 278.674 214.807 278.86 215.307C279.046 215.807 279.332 216.21 279.718 216.517C280.104 216.824 280.597 216.977 281.195 216.977ZM287.197 218V209.273H288.492V210.591H288.583C288.742 210.159 289.03 209.809 289.447 209.54C289.863 209.271 290.333 209.136 290.856 209.136C290.954 209.136 291.077 209.138 291.225 209.142C291.373 209.146 291.484 209.152 291.56 209.159V210.523C291.515 210.511 291.411 210.494 291.248 210.472C291.089 210.445 290.92 210.432 290.742 210.432C290.318 210.432 289.939 210.521 289.606 210.699C289.276 210.873 289.015 211.116 288.822 211.426C288.632 211.733 288.537 212.083 288.537 212.477V218H287.197ZM293.15 218V209.273H294.445V210.636H294.559C294.741 210.17 295.034 209.809 295.439 209.551C295.845 209.29 296.332 209.159 296.9 209.159C297.475 209.159 297.955 209.29 298.337 209.551C298.724 209.809 299.025 210.17 299.241 210.636H299.332C299.555 210.186 299.89 209.828 300.337 209.562C300.784 209.294 301.32 209.159 301.945 209.159C302.725 209.159 303.364 209.403 303.86 209.892C304.356 210.377 304.604 211.133 304.604 212.159V218H303.263V212.159C303.263 211.515 303.087 211.055 302.735 210.778C302.383 210.502 301.968 210.364 301.491 210.364C300.877 210.364 300.402 210.549 300.064 210.92C299.727 211.288 299.559 211.754 299.559 212.318V218H298.195V212.023C298.195 211.527 298.034 211.127 297.712 210.824C297.39 210.517 296.975 210.364 296.468 210.364C296.119 210.364 295.794 210.456 295.491 210.642C295.191 210.828 294.949 211.085 294.763 211.415C294.582 211.741 294.491 212.117 294.491 212.545V218H293.15ZM309.624 218.205C309.071 218.205 308.569 218.1 308.118 217.892C307.668 217.68 307.31 217.375 307.045 216.977C306.779 216.576 306.647 216.091 306.647 215.523C306.647 215.023 306.745 214.617 306.942 214.307C307.139 213.992 307.403 213.746 307.732 213.568C308.062 213.39 308.425 213.258 308.823 213.17C309.225 213.08 309.628 213.008 310.033 212.955C310.564 212.886 310.993 212.835 311.323 212.801C311.656 212.763 311.899 212.701 312.05 212.614C312.206 212.527 312.283 212.375 312.283 212.159V212.114C312.283 211.553 312.13 211.117 311.823 210.807C311.52 210.496 311.06 210.341 310.442 210.341C309.802 210.341 309.3 210.481 308.937 210.761C308.573 211.042 308.317 211.341 308.17 211.659L306.897 211.205C307.124 210.674 307.427 210.261 307.806 209.966C308.189 209.667 308.605 209.458 309.056 209.341C309.511 209.22 309.957 209.159 310.397 209.159C310.677 209.159 310.999 209.193 311.363 209.261C311.73 209.326 312.084 209.46 312.425 209.665C312.77 209.869 313.056 210.178 313.283 210.591C313.511 211.004 313.624 211.557 313.624 212.25V218H312.283V216.818H312.215C312.124 217.008 311.973 217.21 311.761 217.426C311.548 217.642 311.266 217.826 310.914 217.977C310.562 218.129 310.132 218.205 309.624 218.205ZM309.829 217C310.359 217 310.806 216.896 311.17 216.688C311.537 216.479 311.814 216.21 311.999 215.881C312.189 215.551 312.283 215.205 312.283 214.841V213.614C312.226 213.682 312.101 213.744 311.908 213.801C311.719 213.854 311.499 213.902 311.249 213.943C311.003 213.981 310.762 214.015 310.528 214.045C310.296 214.072 310.109 214.095 309.965 214.114C309.617 214.159 309.291 214.233 308.988 214.335C308.689 214.434 308.446 214.583 308.261 214.784C308.079 214.981 307.988 215.25 307.988 215.591C307.988 216.057 308.16 216.409 308.505 216.648C308.853 216.883 309.295 217 309.829 217ZM319.617 218.182C318.799 218.182 318.094 217.989 317.503 217.602C316.912 217.216 316.458 216.684 316.14 216.006C315.822 215.328 315.662 214.553 315.662 213.682C315.662 212.795 315.825 212.013 316.151 211.335C316.481 210.653 316.939 210.121 317.526 209.739C318.117 209.352 318.806 209.159 319.594 209.159C320.208 209.159 320.761 209.273 321.253 209.5C321.746 209.727 322.149 210.045 322.464 210.455C322.778 210.864 322.973 211.341 323.049 211.886H321.708C321.606 211.489 321.378 211.136 321.026 210.83C320.678 210.519 320.208 210.364 319.617 210.364C319.094 210.364 318.636 210.5 318.242 210.773C317.852 211.042 317.547 211.422 317.327 211.915C317.111 212.403 317.003 212.977 317.003 213.636C317.003 214.311 317.109 214.898 317.322 215.398C317.537 215.898 317.841 216.286 318.231 216.562C318.625 216.839 319.087 216.977 319.617 216.977C319.966 216.977 320.282 216.917 320.566 216.795C320.85 216.674 321.091 216.5 321.287 216.273C321.484 216.045 321.625 215.773 321.708 215.455H323.049C322.973 215.97 322.786 216.434 322.486 216.847C322.191 217.256 321.799 217.581 321.31 217.824C320.825 218.062 320.261 218.182 319.617 218.182ZM318.981 217.955H320.094L320.003 218.409C320.299 218.455 320.57 218.578 320.816 218.778C321.062 218.983 321.185 219.307 321.185 219.75C321.185 220.239 320.983 220.636 320.577 220.943C320.176 221.254 319.583 221.409 318.799 221.409L318.753 220.523C319.106 220.523 319.397 220.466 319.628 220.352C319.863 220.242 319.981 220.057 319.981 219.795C319.981 219.534 319.884 219.356 319.691 219.261C319.498 219.167 319.185 219.102 318.753 219.068L318.981 217.955ZM327.577 218.205C327.024 218.205 326.522 218.1 326.072 217.892C325.621 217.68 325.263 217.375 324.998 216.977C324.733 216.576 324.6 216.091 324.6 215.523C324.6 215.023 324.698 214.617 324.895 214.307C325.092 213.992 325.356 213.746 325.685 213.568C326.015 213.39 326.378 213.258 326.776 213.17C327.178 213.08 327.581 213.008 327.986 212.955C328.517 212.886 328.947 212.835 329.276 212.801C329.609 212.763 329.852 212.701 330.003 212.614C330.159 212.527 330.236 212.375 330.236 212.159V212.114C330.236 211.553 330.083 211.117 329.776 210.807C329.473 210.496 329.013 210.341 328.395 210.341C327.755 210.341 327.253 210.481 326.89 210.761C326.526 211.042 326.27 211.341 326.123 211.659L324.85 211.205C325.077 210.674 325.38 210.261 325.759 209.966C326.142 209.667 326.558 209.458 327.009 209.341C327.464 209.22 327.911 209.159 328.35 209.159C328.63 209.159 328.952 209.193 329.316 209.261C329.683 209.326 330.037 209.46 330.378 209.665C330.723 209.869 331.009 210.178 331.236 210.591C331.464 211.004 331.577 211.557 331.577 212.25V218H330.236V216.818H330.168C330.077 217.008 329.926 217.21 329.714 217.426C329.502 217.642 329.219 217.826 328.867 217.977C328.515 218.129 328.085 218.205 327.577 218.205ZM327.782 217C328.312 217 328.759 216.896 329.123 216.688C329.49 216.479 329.767 216.21 329.952 215.881C330.142 215.551 330.236 215.205 330.236 214.841V213.614C330.18 213.682 330.055 213.744 329.861 213.801C329.672 213.854 329.452 213.902 329.202 213.943C328.956 213.981 328.716 214.015 328.481 214.045C328.25 214.072 328.062 214.095 327.918 214.114C327.57 214.159 327.244 214.233 326.941 214.335C326.642 214.434 326.399 214.583 326.214 214.784C326.032 214.981 325.941 215.25 325.941 215.591C325.941 216.057 326.113 216.409 326.458 216.648C326.806 216.883 327.248 217 327.782 217ZM326.691 208.227L325.645 208.182C325.645 207.602 325.81 207.129 326.14 206.761C326.473 206.39 326.884 206.205 327.373 206.205C327.589 206.205 327.78 206.242 327.947 206.318C328.113 206.39 328.272 206.473 328.424 206.568C328.575 206.663 328.731 206.748 328.89 206.824C329.053 206.896 329.236 206.932 329.441 206.932C329.657 206.932 329.839 206.848 329.986 206.682C330.138 206.511 330.214 206.307 330.214 206.068L331.236 206.159C331.236 206.75 331.07 207.22 330.736 207.568C330.407 207.917 329.998 208.091 329.509 208.091C329.248 208.091 329.032 208.055 328.861 207.983C328.691 207.907 328.539 207.822 328.407 207.727C328.274 207.633 328.134 207.549 327.986 207.477C327.839 207.402 327.657 207.364 327.441 207.364C327.225 207.364 327.045 207.449 326.901 207.619C326.761 207.786 326.691 207.989 326.691 208.227ZM337.57 218.182C336.782 218.182 336.091 217.994 335.496 217.619C334.905 217.244 334.443 216.72 334.11 216.045C333.78 215.371 333.616 214.583 333.616 213.682C333.616 212.773 333.78 211.979 334.11 211.301C334.443 210.623 334.905 210.097 335.496 209.722C336.091 209.347 336.782 209.159 337.57 209.159C338.358 209.159 339.047 209.347 339.638 209.722C340.233 210.097 340.695 210.623 341.025 211.301C341.358 211.979 341.525 212.773 341.525 213.682C341.525 214.583 341.358 215.371 341.025 216.045C340.695 216.72 340.233 217.244 339.638 217.619C339.047 217.994 338.358 218.182 337.57 218.182ZM337.57 216.977C338.169 216.977 338.661 216.824 339.047 216.517C339.434 216.21 339.72 215.807 339.905 215.307C340.091 214.807 340.184 214.265 340.184 213.682C340.184 213.098 340.091 212.555 339.905 212.051C339.72 211.547 339.434 211.14 339.047 210.83C338.661 210.519 338.169 210.364 337.57 210.364C336.972 210.364 336.479 210.519 336.093 210.83C335.707 211.14 335.421 211.547 335.235 212.051C335.049 212.555 334.957 213.098 334.957 213.682C334.957 214.265 335.049 214.807 335.235 215.307C335.421 215.807 335.707 216.21 336.093 216.517C336.479 216.824 336.972 216.977 337.57 216.977Z" fill="white"/>
<g clip-path="url(#clip0_2250_1199)">
<ellipse opacity="0.1" cx="48.3789" cy="79.2964" rx="14.8437" ry="14.7197" fill="#0E161D"/>
<ellipse opacity="0.1" cx="85.039" cy="79.2964" rx="14.8437" ry="14.7197" fill="#0E161D"/>
<ellipse cx="121.701" cy="79.2964" rx="14.8437" ry="14.7197" fill="#0E161D"/>
<ellipse opacity="0.1" cx="158.359" cy="79.2964" rx="14.8437" ry="14.7197" fill="#0E161D"/>
<ellipse opacity="0.1" cx="48.3789" cy="139.792" rx="14.8437" ry="14.7197" fill="#0E161D"/>
<ellipse opacity="0.1" cx="85.039" cy="139.792" rx="14.8437" ry="14.7197" fill="#0E161D"/>
<ellipse opacity="0.1" cx="121.701" cy="139.792" rx="14.8437" ry="14.7197" fill="#0E161D"/>
<ellipse opacity="0.1" cx="158.359" cy="139.792" rx="14.8437" ry="14.7197" fill="#0E161D"/>
<ellipse opacity="0.1" cx="29.9999" cy="170.007" rx="14.8437" ry="14.7197" fill="#0E161D"/>
<ellipse cx="66.6581" cy="170.007" rx="14.8437" ry="14.7197" fill="#0E161D"/>
<ellipse opacity="0.1" cx="103.318" cy="170.007" rx="14.8437" ry="14.7197" fill="#0E161D"/>
<ellipse opacity="0.1" cx="139.977" cy="170.007" rx="14.8437" ry="14.7197" fill="#0E161D"/>
<ellipse opacity="0.1" cx="29.9999" cy="49.1501" rx="14.8437" ry="14.7197" fill="#0E161D"/>
<ellipse cx="66.6581" cy="49.1501" rx="14.8437" ry="14.7197" fill="#0E161D"/>
<ellipse opacity="0.1" cx="103.318" cy="49.1501" rx="14.8437" ry="14.7197" fill="#0E161D"/>
<ellipse opacity="0.1" cx="139.977" cy="49.1501" rx="14.8437" ry="14.7197" fill="#0E161D"/>
<ellipse cx="29.9999" cy="109.579" rx="14.8437" ry="14.7197" fill="#0E161D"/>
<ellipse opacity="0.1" cx="66.6581" cy="109.579" rx="14.8437" ry="14.7197" fill="#0E161D"/>
<ellipse cx="103.318" cy="109.579" rx="14.8437" ry="14.7197" fill="#0E161D"/>
<ellipse opacity="0.1" cx="139.977" cy="109.579" rx="14.8437" ry="14.7197" fill="#0E161D"/>
</g>
<g clip-path="url(#clip1_2250_1199)">
<ellipse opacity="0.1" cx="254.607" cy="79.2964" rx="14.8437" ry="14.7197" fill="#0E161D"/>
<ellipse opacity="0.1" cx="291.268" cy="79.2964" rx="14.8437" ry="14.7197" fill="#0E161D"/>
<ellipse cx="327.93" cy="79.2964" rx="14.8437" ry="14.7197" fill="#0E161D"/>
<ellipse opacity="0.1" cx="364.588" cy="79.2964" rx="14.8437" ry="14.7197" fill="#0E161D"/>
<ellipse opacity="0.1" cx="254.607" cy="139.792" rx="14.8437" ry="14.7197" fill="#0E161D"/>
<ellipse opacity="0.1" cx="291.268" cy="139.792" rx="14.8437" ry="14.7197" fill="#0E161D"/>
<ellipse opacity="0.1" cx="327.93" cy="139.792" rx="14.8437" ry="14.7197" fill="#0E161D"/>
<ellipse opacity="0.1" cx="364.588" cy="139.792" rx="14.8437" ry="14.7197" fill="#0E161D"/>
<ellipse opacity="0.1" cx="236.228" cy="170.007" rx="14.8437" ry="14.7197" fill="#0E161D"/>
<ellipse cx="272.887" cy="170.007" rx="14.8437" ry="14.7197" fill="#0E161D"/>
<ellipse opacity="0.1" cx="309.547" cy="170.007" rx="14.8437" ry="14.7197" fill="#0E161D"/>
<ellipse opacity="0.1" cx="346.205" cy="170.007" rx="14.8437" ry="14.7197" fill="#0E161D"/>
<ellipse opacity="0.1" cx="236.228" cy="49.1501" rx="14.8437" ry="14.7197" fill="#0E161D"/>
<ellipse cx="272.887" cy="49.1501" rx="14.8437" ry="14.7197" fill="#0E161D"/>
<ellipse opacity="0.1" cx="309.547" cy="49.1501" rx="14.8437" ry="14.7197" fill="#0E161D"/>
<ellipse opacity="0.1" cx="346.205" cy="49.1501" rx="14.8437" ry="14.7197" fill="#0E161D"/>
<ellipse cx="236.228" cy="109.579" rx="14.8437" ry="14.7197" fill="#0E161D"/>
<ellipse opacity="0.1" cx="272.887" cy="109.579" rx="14.8437" ry="14.7197" fill="#0E161D"/>
<ellipse cx="309.547" cy="109.579" rx="14.8437" ry="14.7197" fill="#0E161D"/>
<ellipse opacity="0.1" cx="346.205" cy="109.579" rx="14.8437" ry="14.7197" fill="#0E161D"/>
<line x1="327.762" y1="80.647" x2="272.859" y2="48.819" stroke="#0E161D" stroke-width="13.5269"/>
<line x1="236.172" y1="109.618" x2="272.774" y2="45.9619" stroke="#0E161D" stroke-width="13.5269"/>
<line x1="270.416" y1="175.61" x2="305.427" y2="115.932" stroke="#0E161D" stroke-width="13.5269"/>
</g>
<g clip-path="url(#clip2_2250_1199)">
<ellipse opacity="0.1" cx="460.838" cy="79.2964" rx="14.8437" ry="14.7197" fill="#0E161D"/>
<ellipse cx="497.498" cy="79.2964" rx="14.8437" ry="14.7197" fill="#0E161D"/>
<ellipse opacity="0.1" cx="534.16" cy="79.2964" rx="14.8437" ry="14.7197" fill="#0E161D"/>
<ellipse opacity="0.1" cx="570.818" cy="79.2964" rx="14.8437" ry="14.7197" fill="#0E161D"/>
<ellipse opacity="0.1" cx="460.838" cy="139.792" rx="14.8437" ry="14.7197" fill="#0E161D"/>
<ellipse cx="497.498" cy="139.792" rx="14.8437" ry="14.7197" fill="#0E161D"/>
<ellipse cx="534.16" cy="139.792" rx="14.8437" ry="14.7197" fill="#0E161D"/>
<ellipse opacity="0.1" cx="570.818" cy="139.792" rx="14.8437" ry="14.7197" fill="#0E161D"/>
<ellipse opacity="0.1" cx="442.459" cy="170.007" rx="14.8437" ry="14.7197" fill="#0E161D"/>
<ellipse opacity="0.1" cx="479.117" cy="170.007" rx="14.8437" ry="14.7197" fill="#0E161D"/>
<ellipse opacity="0.1" cx="515.777" cy="170.007" rx="14.8437" ry="14.7197" fill="#0E161D"/>
<ellipse opacity="0.1" cx="552.435" cy="170.007" rx="14.8437" ry="14.7197" fill="#0E161D"/>
<ellipse opacity="0.1" cx="442.459" cy="49.1501" rx="14.8437" ry="14.7197" fill="#0E161D"/>
<ellipse opacity="0.1" cx="479.117" cy="49.1501" rx="14.8437" ry="14.7197" fill="#0E161D"/>
<ellipse opacity="0.1" cx="515.777" cy="49.1501" rx="14.8437" ry="14.7197" fill="#0E161D"/>
<ellipse opacity="0.1" cx="552.435" cy="49.1501" rx="14.8437" ry="14.7197" fill="#0E161D"/>
<ellipse opacity="0.1" cx="442.459" cy="109.579" rx="14.8437" ry="14.7197" fill="#0E161D"/>
<ellipse cx="479.117" cy="109.579" rx="14.8437" ry="14.7197" fill="#0E161D"/>
<ellipse cx="515.777" cy="109.579" rx="14.8437" ry="14.7197" fill="#0E161D"/>
<ellipse opacity="0.1" cx="552.435" cy="109.579" rx="14.8437" ry="14.7197" fill="#0E161D"/>
</g>
<line y1="-6.76344" x2="39.3372" y2="-6.76344" transform="matrix(0.493423 -0.86979 0.876535 0.481338 485.248 115.376)" stroke="#0E161D" stroke-width="13.5269"/>
<line y1="-6.76344" x2="37.2107" y2="-6.76344" transform="matrix(0.999771 -0.0213836 0.0220901 0.999756 483.629 116.968)" stroke="#0E161D" stroke-width="13.5269"/>
<line y1="-6.76344" x2="37.2107" y2="-6.76344" transform="matrix(0.999771 -0.0213836 0.0220901 0.999756 499.803 147.204)" stroke="#0E161D" stroke-width="13.5269"/>
<line y1="-6.76344" x2="42.5421" y2="-6.76344" transform="matrix(0.566781 0.823869 -0.83233 0.55428 510.316 112.194)" stroke="#0E161D" stroke-width="13.5269"/>
<path opacity="0.5" d="M467.106 210H465.697C465.614 209.595 465.468 209.239 465.26 208.932C465.055 208.625 464.805 208.367 464.51 208.159C464.218 207.947 463.894 207.788 463.538 207.682C463.182 207.576 462.811 207.523 462.424 207.523C461.72 207.523 461.082 207.701 460.51 208.057C459.941 208.413 459.489 208.938 459.152 209.631C458.818 210.324 458.652 211.174 458.652 212.182C458.652 213.189 458.818 214.04 459.152 214.733C459.489 215.426 459.941 215.951 460.51 216.307C461.082 216.663 461.72 216.841 462.424 216.841C462.811 216.841 463.182 216.788 463.538 216.682C463.894 216.576 464.218 216.419 464.51 216.21C464.805 215.998 465.055 215.739 465.26 215.432C465.468 215.121 465.614 214.765 465.697 214.364H467.106C467 214.958 466.807 215.491 466.527 215.96C466.246 216.43 465.898 216.83 465.481 217.159C465.065 217.485 464.597 217.733 464.078 217.903C463.563 218.074 463.011 218.159 462.424 218.159C461.432 218.159 460.549 217.917 459.777 217.432C459.004 216.947 458.396 216.258 457.953 215.364C457.51 214.47 457.288 213.409 457.288 212.182C457.288 210.955 457.51 209.894 457.953 209C458.396 208.106 459.004 207.417 459.777 206.932C460.549 206.447 461.432 206.205 462.424 206.205C463.011 206.205 463.563 206.29 464.078 206.46C464.597 206.631 465.065 206.881 465.481 207.21C465.898 207.536 466.246 207.934 466.527 208.403C466.807 208.869 467 209.402 467.106 210ZM472.747 218.182C471.959 218.182 471.268 217.994 470.673 217.619C470.082 217.244 469.62 216.72 469.287 216.045C468.957 215.371 468.792 214.583 468.792 213.682C468.792 212.773 468.957 211.979 469.287 211.301C469.62 210.623 470.082 210.097 470.673 209.722C471.268 209.347 471.959 209.159 472.747 209.159C473.535 209.159 474.224 209.347 474.815 209.722C475.41 210.097 475.872 210.623 476.201 211.301C476.535 211.979 476.701 212.773 476.701 213.682C476.701 214.583 476.535 215.371 476.201 216.045C475.872 216.72 475.41 217.244 474.815 217.619C474.224 217.994 473.535 218.182 472.747 218.182ZM472.747 216.977C473.345 216.977 473.838 216.824 474.224 216.517C474.61 216.21 474.896 215.807 475.082 215.307C475.268 214.807 475.36 214.265 475.36 213.682C475.36 213.098 475.268 212.555 475.082 212.051C474.896 211.547 474.61 211.14 474.224 210.83C473.838 210.519 473.345 210.364 472.747 210.364C472.148 210.364 471.656 210.519 471.27 210.83C470.883 211.14 470.597 211.547 470.412 212.051C470.226 212.555 470.133 213.098 470.133 213.682C470.133 214.265 470.226 214.807 470.412 215.307C470.597 215.807 470.883 216.21 471.27 216.517C471.656 216.824 472.148 216.977 472.747 216.977ZM480.089 212.75V218H478.748V209.273H480.044V210.636H480.157C480.362 210.193 480.672 209.837 481.089 209.568C481.506 209.295 482.044 209.159 482.703 209.159C483.294 209.159 483.811 209.28 484.254 209.523C484.697 209.761 485.042 210.125 485.288 210.614C485.534 211.098 485.657 211.712 485.657 212.455V218H484.316V212.545C484.316 211.86 484.138 211.326 483.782 210.943C483.426 210.557 482.938 210.364 482.316 210.364C481.888 210.364 481.506 210.456 481.169 210.642C480.835 210.828 480.572 211.098 480.379 211.455C480.186 211.811 480.089 212.242 480.089 212.75ZM489.449 212.75V218H488.108V206.364H489.449V210.636H489.562C489.767 210.186 490.074 209.828 490.483 209.562C490.895 209.294 491.445 209.159 492.13 209.159C492.725 209.159 493.246 209.278 493.693 209.517C494.14 209.752 494.486 210.114 494.733 210.602C494.983 211.087 495.108 211.705 495.108 212.455V218H493.767V212.545C493.767 211.852 493.587 211.316 493.227 210.938C492.871 210.555 492.377 210.364 491.744 210.364C491.305 210.364 490.911 210.456 490.562 210.642C490.217 210.828 489.945 211.098 489.744 211.455C489.547 211.811 489.449 212.242 489.449 212.75ZM501.22 218.182C500.379 218.182 499.654 217.996 499.044 217.625C498.438 217.25 497.97 216.727 497.64 216.057C497.315 215.383 497.152 214.598 497.152 213.705C497.152 212.811 497.315 212.023 497.64 211.341C497.97 210.655 498.428 210.121 499.015 209.739C499.606 209.352 500.296 209.159 501.083 209.159C501.538 209.159 501.987 209.235 502.43 209.386C502.873 209.538 503.277 209.784 503.64 210.125C504.004 210.462 504.294 210.909 504.51 211.466C504.726 212.023 504.833 212.708 504.833 213.523V214.091H498.106V212.932H503.47C503.47 212.439 503.371 212 503.174 211.614C502.981 211.227 502.705 210.922 502.345 210.699C501.989 210.475 501.568 210.364 501.083 210.364C500.549 210.364 500.087 210.496 499.697 210.761C499.311 211.023 499.013 211.364 498.805 211.784C498.597 212.205 498.493 212.655 498.493 213.136V213.909C498.493 214.568 498.606 215.127 498.833 215.585C499.065 216.04 499.385 216.386 499.794 216.625C500.203 216.86 500.678 216.977 501.22 216.977C501.572 216.977 501.89 216.928 502.174 216.83C502.462 216.727 502.71 216.576 502.919 216.375C503.127 216.17 503.288 215.917 503.402 215.614L504.697 215.977C504.561 216.417 504.332 216.803 504.01 217.136C503.688 217.466 503.29 217.723 502.816 217.909C502.343 218.091 501.811 218.182 501.22 218.182ZM510.419 218.182C509.601 218.182 508.896 217.989 508.305 217.602C507.714 217.216 507.26 216.684 506.941 216.006C506.623 215.328 506.464 214.553 506.464 213.682C506.464 212.795 506.627 212.013 506.953 211.335C507.282 210.653 507.741 210.121 508.328 209.739C508.919 209.352 509.608 209.159 510.396 209.159C511.01 209.159 511.563 209.273 512.055 209.5C512.547 209.727 512.951 210.045 513.265 210.455C513.58 210.864 513.775 211.341 513.851 211.886H512.51C512.407 211.489 512.18 211.136 511.828 210.83C511.479 210.519 511.01 210.364 510.419 210.364C509.896 210.364 509.438 210.5 509.044 210.773C508.654 211.042 508.349 211.422 508.129 211.915C507.913 212.403 507.805 212.977 507.805 213.636C507.805 214.311 507.911 214.898 508.123 215.398C508.339 215.898 508.642 216.286 509.032 216.562C509.426 216.839 509.888 216.977 510.419 216.977C510.767 216.977 511.083 216.917 511.368 216.795C511.652 216.674 511.892 216.5 512.089 216.273C512.286 216.045 512.426 215.773 512.51 215.455H513.851C513.775 215.97 513.587 216.434 513.288 216.847C512.993 217.256 512.601 217.581 512.112 217.824C511.627 218.062 511.063 218.182 510.419 218.182ZM515.811 218V209.273H517.152V218H515.811ZM516.493 207.818C516.231 207.818 516.006 207.729 515.816 207.551C515.631 207.373 515.538 207.159 515.538 206.909C515.538 206.659 515.631 206.445 515.816 206.267C516.006 206.089 516.231 206 516.493 206C516.754 206 516.977 206.089 517.163 206.267C517.352 206.445 517.447 206.659 517.447 206.909C517.447 207.159 517.352 207.373 517.163 207.551C516.977 207.729 516.754 207.818 516.493 207.818ZM519.608 218V209.273H520.903V210.636H521.017C521.199 210.17 521.492 209.809 521.897 209.551C522.303 209.29 522.789 209.159 523.358 209.159C523.933 209.159 524.413 209.29 524.795 209.551C525.181 209.809 525.483 210.17 525.699 210.636H525.789C526.013 210.186 526.348 209.828 526.795 209.562C527.242 209.294 527.778 209.159 528.403 209.159C529.183 209.159 529.822 209.403 530.318 209.892C530.814 210.377 531.062 211.133 531.062 212.159V218H529.721V212.159C529.721 211.515 529.545 211.055 529.193 210.778C528.841 210.502 528.426 210.364 527.949 210.364C527.335 210.364 526.86 210.549 526.522 210.92C526.185 211.288 526.017 211.754 526.017 212.318V218H524.653V212.023C524.653 211.527 524.492 211.127 524.17 210.824C523.848 210.517 523.433 210.364 522.926 210.364C522.577 210.364 522.252 210.456 521.949 210.642C521.649 210.828 521.407 211.085 521.221 211.415C521.039 211.741 520.949 212.117 520.949 212.545V218H519.608ZM537.173 218.182C536.332 218.182 535.607 217.996 534.997 217.625C534.391 217.25 533.923 216.727 533.593 216.057C533.268 215.383 533.105 214.598 533.105 213.705C533.105 212.811 533.268 212.023 533.593 211.341C533.923 210.655 534.381 210.121 534.968 209.739C535.559 209.352 536.249 209.159 537.037 209.159C537.491 209.159 537.94 209.235 538.383 209.386C538.826 209.538 539.23 209.784 539.593 210.125C539.957 210.462 540.247 210.909 540.463 211.466C540.679 212.023 540.787 212.708 540.787 213.523V214.091H534.059V212.932H539.423C539.423 212.439 539.324 212 539.128 211.614C538.934 211.227 538.658 210.922 538.298 210.699C537.942 210.475 537.521 210.364 537.037 210.364C536.502 210.364 536.04 210.496 535.65 210.761C535.264 211.023 534.967 211.364 534.758 211.784C534.55 212.205 534.446 212.655 534.446 213.136V213.909C534.446 214.568 534.559 215.127 534.787 215.585C535.018 216.04 535.338 216.386 535.747 216.625C536.156 216.86 536.631 216.977 537.173 216.977C537.525 216.977 537.843 216.928 538.128 216.83C538.415 216.727 538.663 216.576 538.872 216.375C539.08 216.17 539.241 215.917 539.355 215.614L540.65 215.977C540.514 216.417 540.285 216.803 539.963 217.136C539.641 217.466 539.243 217.723 538.77 217.909C538.296 218.091 537.764 218.182 537.173 218.182ZM544.167 212.75V218H542.826V209.273H544.122V210.636H544.235C544.44 210.193 544.751 209.837 545.167 209.568C545.584 209.295 546.122 209.159 546.781 209.159C547.372 209.159 547.889 209.28 548.332 209.523C548.775 209.761 549.12 210.125 549.366 210.614C549.612 211.098 549.735 211.712 549.735 212.455V218H548.395V212.545C548.395 211.86 548.217 211.326 547.86 210.943C547.504 210.557 547.016 210.364 546.395 210.364C545.967 210.364 545.584 210.456 545.247 210.642C544.913 210.828 544.65 211.098 544.457 211.455C544.264 211.811 544.167 212.242 544.167 212.75ZM555.981 209.273V210.409H551.458V209.273H555.981ZM552.777 207.182H554.118V215.5C554.118 215.879 554.172 216.163 554.282 216.352C554.396 216.538 554.54 216.663 554.714 216.727C554.892 216.788 555.08 216.818 555.277 216.818C555.424 216.818 555.546 216.811 555.64 216.795C555.735 216.777 555.811 216.761 555.868 216.75L556.14 217.955C556.049 217.989 555.922 218.023 555.76 218.057C555.597 218.095 555.39 218.114 555.14 218.114C554.761 218.114 554.39 218.032 554.027 217.869C553.667 217.706 553.368 217.458 553.129 217.125C552.894 216.792 552.777 216.371 552.777 215.864V207.182ZM561.45 218.182C560.662 218.182 559.971 217.994 559.376 217.619C558.785 217.244 558.323 216.72 557.99 216.045C557.66 215.371 557.495 214.583 557.495 213.682C557.495 212.773 557.66 211.979 557.99 211.301C558.323 210.623 558.785 210.097 559.376 209.722C559.971 209.347 560.662 209.159 561.45 209.159C562.238 209.159 562.927 209.347 563.518 209.722C564.113 210.097 564.575 210.623 564.904 211.301C565.238 211.979 565.404 212.773 565.404 213.682C565.404 214.583 565.238 215.371 564.904 216.045C564.575 216.72 564.113 217.244 563.518 217.619C562.927 217.994 562.238 218.182 561.45 218.182ZM561.45 216.977C562.048 216.977 562.541 216.824 562.927 216.517C563.314 216.21 563.6 215.807 563.785 215.307C563.971 214.807 564.064 214.265 564.064 213.682C564.064 213.098 563.971 212.555 563.785 212.051C563.6 211.547 563.314 211.14 562.927 210.83C562.541 210.519 562.048 210.364 561.45 210.364C560.851 210.364 560.359 210.519 559.973 210.83C559.586 211.14 559.3 211.547 559.115 212.051C558.929 212.555 558.836 213.098 558.836 213.682C558.836 214.265 558.929 214.807 559.115 215.307C559.3 215.807 559.586 216.21 559.973 216.517C560.359 216.824 560.851 216.977 561.45 216.977Z" fill="white"/>
<defs>
<clipPath id="clip0_2250_1199">
<rect width="179.541" height="213.247" fill="white"/>
</clipPath>
<clipPath id="clip1_2250_1199">
<rect width="179.541" height="213.247" fill="white" transform="translate(206.229)"/>
</clipPath>
<clipPath id="clip2_2250_1199">
<rect width="179.541" height="213.247" fill="white" transform="translate(412.459)"/>
</clipPath>
</defs>
</svg>
